<svg xmlns="http://www.w3.org/2000/svg" height="24" viewBox="0 -960 960 960" width="24" ><path fill="#828282" d="M806.696-102.804q-123.283 0-249.066-58-125.782-58-232.065-164.283Q219.043-430.609 160.924-557.13q-58.12-126.522-58.12-249.326 0-22.153 14.294-36.566 14.293-14.413 36.446-14.413h153.26q18.066 0 30.837 11.555 12.772 11.554 17.25 30.38l28.522 132.63q1.239 16.109-1.978 30.261-3.217 14.153-11.37 21.827l-103.521 103.13q23.043 40.565 51.445 76.869 28.402 36.305 62.446 69.109 35.282 37.522 73.467 66.446t78.511 50.967l102.043-102.804q10.674-11.913 24.185-16.131 13.511-4.217 27.859-1.261l128.478 28.848q18.587 5.196 30.522 19.109 11.935 13.913 11.935 32.5v150.456q0 22.153-14.413 36.446-14.413 14.294-36.326 14.294Z"/></svg>