<svg xmlns="http://www.w3.org/2000/svg" height="24" viewBox="0 -960 960 960" width="24"><path fill="#828282" d="M220.63-58.956q-32.19 0-54.747-22.557-22.557-22.557-22.557-54.748v-432.5q0-32.624 22.557-55.084 22.557-22.459 54.747-22.459h56.805v-90.739q0-85.228 59.245-144.636 59.246-59.408 143.234-59.408 83.989 0 143.32 59.408 59.331 59.408 59.331 144.636v90.739h56.805q32.289 0 54.916 22.459 22.627 22.46 22.627 55.084v432.5q0 32.191-22.627 54.748-22.627 22.557-54.916 22.557H220.63Zm259.618-210.827q34.035 0 57.817-23.514 23.783-23.514 23.783-56.534 0-32.082-24.031-57.984-24.03-25.902-58.065-25.902t-57.817 25.947q-23.783 25.947-23.783 58.48 0 32.631 24.031 56.069 24.03 23.438 58.065 23.438ZM354.739-646.304h250.522v-90.684q0-53.389-36.478-89.972-36.478-36.583-88.727-36.583-52.248 0-88.782 36.583-36.535 36.583-36.535 89.972v90.684Z"/></svg>